<svg width="50" height="50" viewBox="0 0 50 50" fill="none" xmlns="http://www.w3.org/2000/svg">
<path d="M25 1.99997C12.3095 1.99997 2 12.3095 2 25C2 29.0791 3.11869 32.8858 4.98438 36.209L2.03711 46.7304C1.99002 46.8988 1.9879 47.0766 2.03094 47.246C2.07398 47.4155 2.16069 47.5707 2.28242 47.6961C2.40415 47.8216 2.55665 47.913 2.72471 47.9612C2.89277 48.0093 3.07052 48.0126 3.24023 47.9707L14.2109 45.2519C17.4346 46.9729 21.0926 48 25 48C37.6905 48 48 37.6904 48 25C48 12.3095 37.6905 1.99997 25 1.99997ZM25 3.99997C36.6095 3.99997 46 13.3904 46 25C46 36.6095 36.6095 46 25 46C21.278 46 17.7921 45.0296 14.7617 43.334C14.5401 43.2101 14.2796 43.1752 14.0332 43.2363L4.42578 45.6172L7.00195 36.4258C7.03882 36.2959 7.04899 36.1598 7.03188 36.0259C7.01476 35.892 6.97069 35.7629 6.90234 35.6465C5.06069 32.5236 4 28.8901 4 25C4 13.3904 13.3905 3.99997 25 3.99997ZM16.6426 13C16.0015 13 15.086 13.2385 14.334 14.0488C13.8823 14.5355 12 16.3695 12 19.5937C12 22.9552 14.3314 25.8558 14.6133 26.2285H14.6152V26.2304C14.5885 26.1953 14.973 26.7522 15.4863 27.4199C15.9996 28.0876 16.7174 28.9646 17.6191 29.914C19.4226 31.8129 21.9583 34.0074 25.1055 35.3496C26.5548 35.9667 27.6982 36.3394 28.5645 36.6113C30.1698 37.1154 31.6321 37.0388 32.7305 36.8769C33.5526 36.7558 34.4569 36.3611 35.3516 35.7949C36.2463 35.2287 37.1231 34.5247 37.5098 33.455C37.7868 32.6882 37.9276 31.9796 37.9785 31.3965C38.004 31.1049 38.0072 30.8476 37.9883 30.6093C37.9693 30.3711 37.9896 30.1886 37.7676 29.8242C37.302 29.0598 36.7748 29.0398 36.2246 28.7675C35.9189 28.6163 35.0487 28.1913 34.1758 27.7754C33.3039 27.3599 32.5489 26.9919 32.084 26.8261C31.7902 26.7205 31.4316 26.5683 30.9141 26.6269C30.3966 26.6855 29.8855 27.0589 29.5879 27.5C29.3058 27.918 28.1704 29.2583 27.8242 29.6523C27.8196 29.6495 27.8497 29.6634 27.7129 29.5957C27.2848 29.3838 26.7612 29.2036 25.9863 28.7949C25.2115 28.3862 24.2423 27.7826 23.1816 26.8476V26.8457C21.603 25.4559 20.4973 23.7111 20.1484 23.125C20.1719 23.097 20.1456 23.1309 20.1953 23.082L20.1973 23.08C20.5538 22.7289 20.8697 22.3095 21.1367 22.0019C21.5153 21.5658 21.6823 21.1814 21.8633 20.8222C22.224 20.1064 22.0231 19.3187 21.8145 18.9043V18.9023C21.8289 18.931 21.7016 18.6501 21.5645 18.3261C21.4269 18.0012 21.2517 17.58 21.0645 17.1308C20.69 16.2325 20.272 15.2249 20.0234 14.6347V14.6328C19.7306 13.9377 19.3344 13.4369 18.8164 13.1953C18.2984 12.9537 17.8408 13.0224 17.8223 13.0215H17.8203C17.4507 13.0044 17.045 13 16.6426 13ZM16.6426 15C17.0281 15 17.4082 15.0047 17.7266 15.0195C18.0541 15.0358 18.0337 15.0372 17.9707 15.0078C17.9067 14.9779 17.9935 14.9683 18.1797 15.4101C18.4231 15.988 18.8432 16.9992 19.2188 17.9004C19.4065 18.3509 19.5823 18.7738 19.7227 19.1054C19.863 19.4371 19.9391 19.6223 20.0273 19.7988V19.8008L20.0293 19.8027C20.1158 19.9735 20.1082 19.8641 20.0781 19.9238C19.8671 20.3426 19.8385 20.4455 19.625 20.6914C19.3 21.0658 18.9685 21.4834 18.793 21.6562C18.6394 21.807 18.3624 22.042 18.1895 22.5019C18.0162 22.9625 18.0971 23.5945 18.375 24.0664C18.745 24.6946 19.9644 26.6793 21.8594 28.3476C23.0528 29.3996 24.1646 30.0959 25.0527 30.5644C25.9409 31.0329 26.6643 31.3066 26.8262 31.3867C27.2105 31.5769 27.6307 31.7246 28.1191 31.666C28.6076 31.6073 29.0288 31.3109 29.2969 31.0078L29.2988 31.0058C29.6556 30.6013 30.7158 29.3907 31.2246 28.6445C31.2462 28.6521 31.2391 28.6462 31.4082 28.707V28.709H31.4102C31.4874 28.7364 32.4543 29.1692 33.3164 29.58C34.1785 29.9909 35.0536 30.4178 35.3379 30.5586C35.7482 30.7616 35.9421 30.8939 35.9922 30.8945C35.9956 30.9825 35.999 31.0778 35.9863 31.2226C35.9513 31.6243 35.8439 32.1802 35.6289 32.7754C35.5236 33.0667 34.975 33.6676 34.2832 34.1054C33.5914 34.5432 32.7493 34.8525 32.4375 34.8984C31.4999 35.0366 30.3867 35.087 29.1641 34.7031C28.3163 34.437 27.2593 34.0926 25.8906 33.5097C23.1148 32.3259 20.7556 30.3115 19.0703 28.5371C18.2277 27.6499 17.5526 26.824 17.0723 26.1992C16.5929 25.5756 16.3835 25.251 16.209 25.0215L16.207 25.0195C15.8972 24.6098 14 21.9708 14 19.5937C14 17.078 15.1685 16.0914 15.8008 15.4101C16.1327 15.0525 16.4956 15 16.6426 15Z" fill="black"/>
</svg>
